<svg xmlns="http://www.w3.org/2000/svg" width="192" height="192" viewBox="0 0 192 192" shape-rendering="crispEdges"><rect x="0" y="0" width="12" height="12" fill="#FFD700"/><rect x="12" y="0" width="12" height="12" fill="#FFD700"/><rect x="24" y="0" width="12" height="12" fill="#FFD700"/><rect x="36" y="0" width="12" height="12" fill="#FFD700"/><rect x="48" y="0" width="12" height="12" fill="#FFD700"/><rect x="60" y="0" width="12" height="12" fill="#FFD700"/><rect x="72" y="0" width="12" height="12" fill="#FFD700"/><rect x="84" y="0" width="12" height="12" fill="#FFD700"/><rect x="96" y="0" width="12" height="12" fill="#FFD700"/><rect x="108" y="0" width="12" height="12" fill="#FFD700"/><rect x="120" y="0" width="12" height="12" fill="#FFD700"/><rect x="132" y="0" width="12" height="12" fill="#FFD700"/><rect x="144" y="0" width="12" height="12" fill="#FFD700"/><rect x="156" y="0" width="12" height="12" fill="#FFD700"/><rect x="168" y="0" width="12" height="12" fill="#FFD700"/><rect x="180" y="0" width="12" height="12" fill="#FFD700"/><rect x="0" y="12" width="12" height="12" fill="#FFD700"/><rect x="12" y="12" width="12" height="12" fill="#11111A"/><rect x="24" y="12" width="12" height="12" fill="#11111A"/><rect x="36" y="12" width="12" height="12" fill="#11111A"/><rect x="48" y="12" width="12" height="12" fill="#11111A"/><rect x="60" y="12" width="12" height="12" fill="#11111A"/><rect x="72" y="12" width="12" height="12" fill="#11111A"/><rect x="84" y="12" width="12" height="12" fill="#11111A"/><rect x="96" y="12" width="12" height="12" fill="#11111A"/><rect x="108" y="12" width="12" height="12" fill="#11111A"/><rect x="120" y="12" width="12" height="12" fill="#11111A"/><rect x="132" y="12" width="12" height="12" fill="#11111A"/><rect x="144" y="12" width="12" height="12" fill="#11111A"/><rect x="156" y="12" width="12" height="12" fill="#11111A"/><rect x="168" y="12" width="12" height="12" fill="#11111A"/><rect x="180" y="12" width="12" height="12" fill="#FFD700"/><rect x="0" y="24" width="12" height="12" fill="#FFD700"/><rect x="12" y="24" width="12" height="12" fill="#11111A"/><rect x="24" y="24" width="12" height="12" fill="#11111A"/><rect x="36" y="24" width="12" height="12" fill="#11111A"/><rect x="48" y="24" width="12" height="12" fill="#11111A"/><rect x="60" y="24" width="12" height="12" fill="#11111A"/><rect x="72" y="24" width="12" height="12" fill="#11111A"/><rect x="84" y="24" width="12" height="12" fill="#11111A"/><rect x="96" y="24" width="12" height="12" fill="#11111A"/><rect x="108" y="24" width="12" height="12" fill="#11111A"/><rect x="120" y="24" width="12" height="12" fill="#11111A"/><rect x="132" y="24" width="12" height="12" fill="#11111A"/><rect x="144" y="24" width="12" height="12" fill="#FFD700"/><rect x="156" y="24" width="12" height="12" fill="#FFD700"/><rect x="168" y="24" width="12" height="12" fill="#BEC4D6"/><rect x="180" y="24" width="12" height="12" fill="#FFD700"/><rect x="0" y="36" width="12" height="12" fill="#FFD700"/><rect x="12" y="36" width="12" height="12" fill="#11111A"/><rect x="24" y="36" width="12" height="12" fill="#FFD700"/><rect x="36" y="36" width="12" height="12" fill="#FFD700"/><rect x="48" y="36" width="12" height="12" fill="#11111A"/><rect x="60" y="36" width="12" height="12" fill="#11111A"/><rect x="72" y="36" width="12" height="12" fill="#11111A"/><rect x="84" y="36" width="12" height="12" fill="#11111A"/><rect x="96" y="36" width="12" height="12" fill="#11111A"/><rect x="108" y="36" width="12" height="12" fill="#11111A"/><rect x="120" y="36" width="12" height="12" fill="#11111A"/><rect x="132" y="36" width="12" height="12" fill="#11111A"/><rect x="144" y="36" width="12" height="12" fill="#FFD700"/><rect x="156" y="36" width="12" height="12" fill="#BEC4D6"/><rect x="168" y="36" width="12" height="12" fill="#11111A"/><rect x="180" y="36" width="12" height="12" fill="#FFD700"/><rect x="0" y="48" width="12" height="12" fill="#FFD700"/><rect x="12" y="48" width="12" height="12" fill="#11111A"/><rect x="24" y="48" width="12" height="12" fill="#FFD700"/><rect x="36" y="48" width="12" height="12" fill="#FFD700"/><rect x="48" y="48" width="12" height="12" fill="#BEC4D6"/><rect x="60" y="48" width="12" height="12" fill="#11111A"/><rect x="72" y="48" width="12" height="12" fill="#11111A"/><rect x="84" y="48" width="12" height="12" fill="#11111A"/><rect x="96" y="48" width="12" height="12" fill="#11111A"/><rect x="108" y="48" width="12" height="12" fill="#11111A"/><rect x="120" y="48" width="12" height="12" fill="#11111A"/><rect x="132" y="48" width="12" height="12" fill="#BEC4D6"/><rect x="144" y="48" width="12" height="12" fill="#BEC4D6"/><rect x="156" y="48" width="12" height="12" fill="#11111A"/><rect x="168" y="48" width="12" height="12" fill="#11111A"/><rect x="180" y="48" width="12" height="12" fill="#FFD700"/><rect x="0" y="60" width="12" height="12" fill="#FFD700"/><rect x="12" y="60" width="12" height="12" fill="#11111A"/><rect x="24" y="60" width="12" height="12" fill="#11111A"/><rect x="36" y="60" width="12" height="12" fill="#11111A"/><rect x="48" y="60" width="12" height="12" fill="#FFD700"/><rect x="60" y="60" width="12" height="12" fill="#BEC4D6"/><rect x="72" y="60" width="12" height="12" fill="#11111A"/><rect x="84" y="60" width="12" height="12" fill="#11111A"/><rect x="96" y="60" width="12" height="12" fill="#11111A"/><rect x="108" y="60" width="12" height="12" fill="#11111A"/><rect x="120" y="60" width="12" height="12" fill="#BEC4D6"/><rect x="132" y="60" width="12" height="12" fill="#BEC4D6"/><rect x="144" y="60" width="12" height="12" fill="#11111A"/><rect x="156" y="60" width="12" height="12" fill="#11111A"/><rect x="168" y="60" width="12" height="12" fill="#11111A"/><rect x="180" y="60" width="12" height="12" fill="#FFD700"/><rect x="0" y="72" width="12" height="12" fill="#FFD700"/><rect x="12" y="72" width="12" height="12" fill="#11111A"/><rect x="24" y="72" width="12" height="12" fill="#11111A"/><rect x="36" y="72" width="12" height="12" fill="#11111A"/><rect x="48" y="72" width="12" height="12" fill="#11111A"/><rect x="60" y="72" width="12" height="12" fill="#BEC4D6"/><rect x="72" y="72" width="12" height="12" fill="#BEC4D6"/><rect x="84" y="72" width="12" height="12" fill="#11111A"/><rect x="96" y="72" width="12" height="12" fill="#11111A"/><rect x="108" y="72" width="12" height="12" fill="#BEC4D6"/><rect x="120" y="72" width="12" height="12" fill="#BEC4D6"/><rect x="132" y="72" width="12" height="12" fill="#11111A"/><rect x="144" y="72" width="12" height="12" fill="#11111A"/><rect x="156" y="72" width="12" height="12" fill="#11111A"/><rect x="168" y="72" width="12" height="12" fill="#11111A"/><rect x="180" y="72" width="12" height="12" fill="#FFD700"/><rect x="0" y="84" width="12" height="12" fill="#FFD700"/><rect x="12" y="84" width="12" height="12" fill="#11111A"/><rect x="24" y="84" width="12" height="12" fill="#11111A"/><rect x="36" y="84" width="12" height="12" fill="#11111A"/><rect x="48" y="84" width="12" height="12" fill="#11111A"/><rect x="60" y="84" width="12" height="12" fill="#11111A"/><rect x="72" y="84" width="12" height="12" fill="#BEC4D6"/><rect x="84" y="84" width="12" height="12" fill="#BEC4D6"/><rect x="96" y="84" width="12" height="12" fill="#00D9A3"/><rect x="108" y="84" width="12" height="12" fill="#BEC4D6"/><rect x="120" y="84" width="12" height="12" fill="#11111A"/><rect x="132" y="84" width="12" height="12" fill="#11111A"/><rect x="144" y="84" width="12" height="12" fill="#11111A"/><rect x="156" y="84" width="12" height="12" fill="#11111A"/><rect x="168" y="84" width="12" height="12" fill="#11111A"/><rect x="180" y="84" width="12" height="12" fill="#FFD700"/><rect x="0" y="96" width="12" height="12" fill="#FFD700"/><rect x="12" y="96" width="12" height="12" fill="#11111A"/><rect x="24" y="96" width="12" height="12" fill="#11111A"/><rect x="36" y="96" width="12" height="12" fill="#11111A"/><rect x="48" y="96" width="12" height="12" fill="#11111A"/><rect x="60" y="96" width="12" height="12" fill="#11111A"/><rect x="72" y="96" width="12" height="12" fill="#11111A"/><rect x="84" y="96" width="12" height="12" fill="#BEC4D6"/><rect x="96" y="96" width="12" height="12" fill="#00D9A3"/><rect x="108" y="96" width="12" height="12" fill="#11111A"/><rect x="120" y="96" width="12" height="12" fill="#11111A"/><rect x="132" y="96" width="12" height="12" fill="#11111A"/><rect x="144" y="96" width="12" height="12" fill="#11111A"/><rect x="156" y="96" width="12" height="12" fill="#11111A"/><rect x="168" y="96" width="12" height="12" fill="#11111A"/><rect x="180" y="96" width="12" height="12" fill="#FFD700"/><rect x="0" y="108" width="12" height="12" fill="#FFD700"/><rect x="12" y="108" width="12" height="12" fill="#11111A"/><rect x="24" y="108" width="12" height="12" fill="#11111A"/><rect x="36" y="108" width="12" height="12" fill="#11111A"/><rect x="48" y="108" width="12" height="12" fill="#11111A"/><rect x="60" y="108" width="12" height="12" fill="#11111A"/><rect x="72" y="108" width="12" height="12" fill="#BEC4D6"/><rect x="84" y="108" width="12" height="12" fill="#BEC4D6"/><rect x="96" y="108" width="12" height="12" fill="#BEC4D6"/><rect x="108" y="108" width="12" height="12" fill="#BEC4D6"/><rect x="120" y="108" width="12" height="12" fill="#11111A"/><rect x="132" y="108" width="12" height="12" fill="#11111A"/><rect x="144" y="108" width="12" height="12" fill="#11111A"/><rect x="156" y="108" width="12" height="12" fill="#11111A"/><rect x="168" y="108" width="12" height="12" fill="#11111A"/><rect x="180" y="108" width="12" height="12" fill="#FFD700"/><rect x="0" y="120" width="12" height="12" fill="#FFD700"/><rect x="12" y="120" width="12" height="12" fill="#11111A"/><rect x="24" y="120" width="12" height="12" fill="#11111A"/><rect x="36" y="120" width="12" height="12" fill="#11111A"/><rect x="48" y="120" width="12" height="12" fill="#CC2200"/><rect x="60" y="120" width="12" height="12" fill="#BEC4D6"/><rect x="72" y="120" width="12" height="12" fill="#BEC4D6"/><rect x="84" y="120" width="12" height="12" fill="#11111A"/><rect x="96" y="120" width="12" height="12" fill="#11111A"/><rect x="108" y="120" width="12" height="12" fill="#FFD700"/><rect x="120" y="120" width="12" height="12" fill="#BEC4D6"/><rect x="132" y="120" width="12" height="12" fill="#11111A"/><rect x="144" y="120" width="12" height="12" fill="#11111A"/><rect x="156" y="120" width="12" height="12" fill="#11111A"/><rect x="168" y="120" width="12" height="12" fill="#11111A"/><rect x="180" y="120" width="12" height="12" fill="#FFD700"/><rect x="0" y="132" width="12" height="12" fill="#FFD700"/><rect x="12" y="132" width="12" height="12" fill="#11111A"/><rect x="24" y="132" width="12" height="12" fill="#11111A"/><rect x="36" y="132" width="12" height="12" fill="#CC2200"/><rect x="48" y="132" width="12" height="12" fill="#CC2200"/><rect x="60" y="132" width="12" height="12" fill="#BEC4D6"/><rect x="72" y="132" width="12" height="12" fill="#11111A"/><rect x="84" y="132" width="12" height="12" fill="#11111A"/><rect x="96" y="132" width="12" height="12" fill="#11111A"/><rect x="108" y="132" width="12" height="12" fill="#11111A"/><rect x="120" y="132" width="12" height="12" fill="#FFD700"/><rect x="132" y="132" width="12" height="12" fill="#FFD700"/><rect x="144" y="132" width="12" height="12" fill="#11111A"/><rect x="156" y="132" width="12" height="12" fill="#11111A"/><rect x="168" y="132" width="12" height="12" fill="#11111A"/><rect x="180" y="132" width="12" height="12" fill="#FFD700"/><rect x="0" y="144" width="12" height="12" fill="#FFD700"/><rect x="12" y="144" width="12" height="12" fill="#11111A"/><rect x="24" y="144" width="12" height="12" fill="#FFD700"/><rect x="36" y="144" width="12" height="12" fill="#CC2200"/><rect x="48" y="144" width="12" height="12" fill="#CC2200"/><rect x="60" y="144" width="12" height="12" fill="#11111A"/><rect x="72" y="144" width="12" height="12" fill="#11111A"/><rect x="84" y="144" width="12" height="12" fill="#11111A"/><rect x="96" y="144" width="12" height="12" fill="#11111A"/><rect x="108" y="144" width="12" height="12" fill="#11111A"/><rect x="120" y="144" width="12" height="12" fill="#FFD700"/><rect x="132" y="144" width="12" height="12" fill="#FFD700"/><rect x="144" y="144" width="12" height="12" fill="#11111A"/><rect x="156" y="144" width="12" height="12" fill="#11111A"/><rect x="168" y="144" width="12" height="12" fill="#11111A"/><rect x="180" y="144" width="12" height="12" fill="#FFD700"/><rect x="0" y="156" width="12" height="12" fill="#FFD700"/><rect x="12" y="156" width="12" height="12" fill="#11111A"/><rect x="24" y="156" width="12" height="12" fill="#CC2200"/><rect x="36" y="156" width="12" height="12" fill="#CC2200"/><rect x="48" y="156" width="12" height="12" fill="#11111A"/><rect x="60" y="156" width="12" height="12" fill="#11111A"/><rect x="72" y="156" width="12" height="12" fill="#11111A"/><rect x="84" y="156" width="12" height="12" fill="#11111A"/><rect x="96" y="156" width="12" height="12" fill="#11111A"/><rect x="108" y="156" width="12" height="12" fill="#11111A"/><rect x="120" y="156" width="12" height="12" fill="#11111A"/><rect x="132" y="156" width="12" height="12" fill="#11111A"/><rect x="144" y="156" width="12" height="12" fill="#11111A"/><rect x="156" y="156" width="12" height="12" fill="#11111A"/><rect x="168" y="156" width="12" height="12" fill="#11111A"/><rect x="180" y="156" width="12" height="12" fill="#FFD700"/><rect x="0" y="168" width="12" height="12" fill="#FFD700"/><rect x="12" y="168" width="12" height="12" fill="#11111A"/><rect x="24" y="168" width="12" height="12" fill="#11111A"/><rect x="36" y="168" width="12" height="12" fill="#11111A"/><rect x="48" y="168" width="12" height="12" fill="#11111A"/><rect x="60" y="168" width="12" height="12" fill="#11111A"/><rect x="72" y="168" width="12" height="12" fill="#11111A"/><rect x="84" y="168" width="12" height="12" fill="#11111A"/><rect x="96" y="168" width="12" height="12" fill="#11111A"/><rect x="108" y="168" width="12" height="12" fill="#11111A"/><rect x="120" y="168" width="12" height="12" fill="#11111A"/><rect x="132" y="168" width="12" height="12" fill="#11111A"/><rect x="144" y="168" width="12" height="12" fill="#11111A"/><rect x="156" y="168" width="12" height="12" fill="#11111A"/><rect x="168" y="168" width="12" height="12" fill="#11111A"/><rect x="180" y="168" width="12" height="12" fill="#FFD700"/><rect x="0" y="180" width="12" height="12" fill="#FFD700"/><rect x="12" y="180" width="12" height="12" fill="#FFD700"/><rect x="24" y="180" width="12" height="12" fill="#FFD700"/><rect x="36" y="180" width="12" height="12" fill="#FFD700"/><rect x="48" y="180" width="12" height="12" fill="#FFD700"/><rect x="60" y="180" width="12" height="12" fill="#FFD700"/><rect x="72" y="180" width="12" height="12" fill="#FFD700"/><rect x="84" y="180" width="12" height="12" fill="#FFD700"/><rect x="96" y="180" width="12" height="12" fill="#FFD700"/><rect x="108" y="180" width="12" height="12" fill="#FFD700"/><rect x="120" y="180" width="12" height="12" fill="#FFD700"/><rect x="132" y="180" width="12" height="12" fill="#FFD700"/><rect x="144" y="180" width="12" height="12" fill="#FFD700"/><rect x="156" y="180" width="12" height="12" fill="#FFD700"/><rect x="168" y="180" width="12" height="12" fill="#FFD700"/><rect x="180" y="180" width="12" height="12" fill="#FFD700"/></svg>