<?xml version="1.0" encoding="UTF-8"?>
<svg version="1.1" xmlns="http://www.w3.org/2000/svg" width="91" height="160">
<path d="M0 0 C30.03 0 60.06 0 91 0 C91 52.8 91 105.6 91 160 C60.97 160 30.94 160 0 160 C0 107.2 0 54.4 0 0 Z " fill="#FDFDFD" transform="translate(0,0)"/>
<path d="M0 0 C8.19793768 4.88539891 12.82612091 12.67285357 17 21 C17.51175781 22.0209375 18.02351563 23.041875 18.55078125 24.09375 C22.58781799 32.52249854 25.90248077 41.19171523 29 50 C29.34417969 50.93328125 29.68835938 51.8665625 30.04296875 52.828125 C33.08861453 62.15094683 34.16904355 74.93257369 30.375 84.1875 C29.2421875 86.18359375 29.2421875 86.18359375 28 88 C27.61070313 88.63035156 27.22140625 89.26070313 26.8203125 89.91015625 C22.70057762 95.65097025 16.61298385 98.00136839 10 100 C8.68 100 7.36 100 6 100 C7.80989295 110.40502686 7.80989295 110.40502686 10.1875 120.6875 C10.91997942 123.67376226 11.4342351 125.96035429 11 129 C9.02317606 131.76755352 7.24847334 132.35168937 4 133 C0.69044263 133.24122671 -2.61999372 133.23094756 -5.9375 133.25 C-7.27844727 133.2809375 -7.27844727 133.2809375 -8.64648438 133.3125 C-13.60431853 133.34194519 -16.96578918 133.22736865 -21 130 C-21.33 129.67 -21.66 129.34 -22 129 C-21.47552766 122.3677485 -20.28860431 115.94476208 -18.9375 109.4375 C-18.75123047 108.52419922 -18.56496094 107.61089844 -18.37304688 106.66992188 C-17.91891897 104.44585955 -17.461187 102.22260724 -17 100 C-17.59530518 99.9575415 -18.19061035 99.91508301 -18.80395508 99.87133789 C-26.52777056 99.19257121 -31.44800793 96.82284114 -36.79296875 91.0703125 C-43.2770811 82.84109337 -45.14116152 75.39115345 -44 65 C-40.10782393 44.95630682 -30.77393356 20.22551907 -17 5 C-16.54238281 4.4534375 -16.08476563 3.906875 -15.61328125 3.34375 C-11.23580083 -1.17170258 -5.79984538 -1.46572179 0 0 Z " fill="#0C0C0C" transform="translate(54,17)"/>
<path d="M0 0 C5.44969065 0.49459377 7.48752475 3.04560935 10.8671875 7.07421875 C16.52502549 14.83561189 21.42674896 22.80837471 21.60546875 32.60546875 C22.29684651 36.80165259 24.93261184 39.9084559 27.27734375 43.375 C33.04613967 52.16554616 33.29579266 62.77069062 32 73 C30.22220438 79.07962207 27.45490452 83.57120287 22 87 C21.01 86.505 21.01 86.505 20 86 C20.40992188 85.54109375 20.81984375 85.0821875 21.2421875 84.609375 C21.78101563 83.99578125 22.31984375 83.3821875 22.875 82.75 C23.40867188 82.14671875 23.94234375 81.5434375 24.4921875 80.921875 C27.36728589 77.25724182 28.25911235 74.66402224 28 70 C26.12119128 70.04768403 26.12119128 70.04768403 24 71 C20.51284143 75.24997451 18.89629425 79.71804254 17.22265625 84.92578125 C16 87 16 87 13.37109375 87.79296875 C12.58863281 87.86128906 11.80617187 87.92960937 11 88 C11.33 86.02 11.66 84.04 12 82 C10.35 81.67 8.7 81.34 7 81 C5.02 83.31 3.04 85.62 1 88 C0.01 87.505 0.01 87.505 -1 87 C-0.50114996 84.75517484 0.07656064 82.8378716 1.0625 80.75 C2.31328476 77.08103137 2.7642624 73.82903182 2 70 C-0.08457671 66.91422496 -0.08457671 66.91422496 -3 65 C-4.32 65 -5.64 65 -7 65 C-9.20949832 69.41029783 -9.2370648 73.48940324 -9.125 78.3125 C-9.11597656 79.05306641 -9.10695313 79.79363281 -9.09765625 80.55664062 C-9.07424213 82.37123467 -9.03837615 84.18566071 -9 86 C-7.515 86.495 -7.515 86.495 -6 87 C-7.98 87.495 -7.98 87.495 -10 88 C-10.56847656 87.24074219 -11.13695313 86.48148437 -11.72265625 85.69921875 C-17.56951215 78.0303626 -17.56951215 78.0303626 -26 74 C-24.89169747 79.44915409 -23.89985574 82.84015388 -20 87 C-25.02268041 86.4419244 -27.49197228 82.67558635 -30.6875 79.125 C-34.45630754 73.02312113 -34.8122353 65.98718075 -34 59 C-32.54069991 54.21234552 -30.71176066 50.40333356 -27 47 C-26.34 49.64 -25.68 52.28 -25 55 C-23.68 55.33 -22.36 55.66 -21 56 C-20.86722656 55.33613281 -20.73445313 54.67226562 -20.59765625 53.98828125 C-19.73177083 49.65885417 -18.86588542 45.32942708 -18 41 C-17.67 41 -17.34 41 -17 41 C-16.97421875 41.85722656 -16.9484375 42.71445313 -16.921875 43.59765625 C-16.57826047 50.52461279 -16.08771914 55.32993797 -12 61 C-10.0435533 60.76684943 -10.0435533 60.76684943 -8 60 C-5.31493177 54.62986354 -3.78953578 49.01671923 -5 43 C-6.47783341 41.37090969 -6.47783341 41.37090969 -8 40 C-8 39.34 -8 38.68 -8 38 C-7.01 38 -6.02 38 -5 38 C-4.31653318 36.34015202 -3.65411685 34.67163195 -3 33 C-2.62875 32.05125 -2.2575 31.1025 -1.875 30.125 C-0.89635462 26.62983793 -0.85550461 23.61238469 -1 20 C-2.32 19.67 -3.64 19.34 -5 19 C-6.65 22.3 -8.3 25.6 -10 29 C-10.66 28.67 -11.32 28.34 -12 28 C-11.67 24.37 -11.34 20.74 -11 17 C-14.83736322 17.95934081 -15.59660228 18.23609263 -18 21 C-16.93047276 13.95370286 -13.11536645 7.43943767 -7.625 2.875 C-6.75875 2.25625 -5.8925 1.6375 -5 1 C-6.02396197 3.75682069 -7.06395172 6.09711187 -8.6875 8.5625 C-10.24617666 10.8851881 -10.24617666 10.8851881 -9.6875 13.3125 C-9.3471875 14.1478125 -9.3471875 14.1478125 -9 15 C-8.01 15 -7.02 15 -6 15 C-5.65066406 14.00097656 -5.30132812 13.00195312 -4.94140625 11.97265625 C-4.48192081 10.66921795 -4.02227721 9.3658354 -3.5625 8.0625 C-3.33240234 7.40314453 -3.10230469 6.74378906 -2.86523438 6.06445312 C-1.11328125 1.11328125 -1.11328125 1.11328125 0 0 Z " fill="#E0E0E0" transform="translate(49,23)"/>
<path d="M0 0 C0.33 0 0.66 0 1 0 C1.02578125 0.85722656 1.0515625 1.71445313 1.078125 2.59765625 C1.42173953 9.52461279 1.91228086 14.32993797 6 20 C9.14737182 19.30058404 12.02588876 18.23921302 15 17 C15.30292969 17.55429688 15.60585938 18.10859375 15.91796875 18.6796875 C18.55880713 23.37223874 18.55880713 23.37223874 22.8125 26.5 C23.534375 26.665 24.25625 26.83 25 27 C26.46652017 24.11980724 27.82047874 21.20691485 29.125 18.25 C29.47820313 17.45078125 29.83140625 16.6515625 30.1953125 15.828125 C30.46085937 15.22484375 30.72640625 14.6215625 31 14 C31.9075 14.0825 32.815 14.165 33.75 14.25 C37.10041408 14.31024799 37.10041408 14.31024799 39.375 12 C39.91125 11.34 40.4475 10.68 41 10 C41.04898438 10.67546875 41.09796875 11.3509375 41.1484375 12.046875 C41.22320312 12.93890625 41.29796875 13.8309375 41.375 14.75 C41.47941406 16.07257813 41.47941406 16.07257813 41.5859375 17.421875 C42.00822807 20.0512314 42.57050769 21.76337938 44 24 C44.99 24.66 45.98 25.32 47 26 C46.34 26 45.68 26 45 26 C45 26.66 45 27.32 45 28 C44.236875 28.55300781 43.47375 29.10601562 42.6875 29.67578125 C38.98379047 32.878844 37.87853393 36.6463917 36.328125 41.13085938 C35.625 42.98046875 35.625 42.98046875 34 46 C31.3125 46.92578125 31.3125 46.92578125 29 47 C29.33 45.02 29.66 43.04 30 41 C28.35 40.67 26.7 40.34 25 40 C23.02 42.31 21.04 44.62 19 47 C18.01 46.505 18.01 46.505 17 46 C17.49885004 43.75517484 18.07656064 41.8378716 19.0625 39.75 C20.31328476 36.08103137 20.7642624 32.82903182 20 29 C17.91542329 25.91422496 17.91542329 25.91422496 15 24 C13.68 24 12.36 24 11 24 C8.79050168 28.41029783 8.7629352 32.48940324 8.875 37.3125 C8.88402344 38.05306641 8.89304687 38.79363281 8.90234375 39.55664062 C8.92575787 41.37123467 8.96162385 43.18566071 9 45 C10.485 45.495 10.485 45.495 12 46 C10.02 46.495 10.02 46.495 8 47 C7.43152344 46.24074219 6.86304687 45.48148438 6.27734375 44.69921875 C0.43048785 37.0303626 0.43048785 37.0303626 -8 33 C-6.89169747 38.44915409 -5.89985574 41.84015388 -2 46 C-7.02268041 45.4419244 -9.49197228 41.67558635 -12.6875 38.125 C-16.45630754 32.02312113 -16.8122353 24.98718075 -16 18 C-14.54069991 13.21234552 -12.71176066 9.40333356 -9 6 C-8.34 8.64 -7.68 11.28 -7 14 C-5.68 14.33 -4.36 14.66 -3 15 C-2.86722656 14.33613281 -2.73445313 13.67226562 -2.59765625 12.98828125 C-1.73177083 8.65885417 -0.86588542 4.32942708 0 0 Z " fill="#E8E8E8" transform="translate(31,64)"/>
<path d="M0 0 C1.32 0.33 2.64 0.66 4 1 C3.67 4.63 3.34 8.26 3 12 C3.7425 10.535625 4.485 9.07125 5.25 7.5625 C7.4362854 3.25065936 7.4362854 3.25065936 10.046875 2.08984375 C10.69140625 2.06019531 11.3359375 2.03054687 12 2 C14 4 14 4 14.375 7.0625 C13.90713635 11.97506837 12.21019524 15.64174352 10 20 C9.67 20.66 9.34 21.32 9 22 C8.01 22 7.02 22 6 22 C6.66 22.639375 7.32 23.27875 8 23.9375 C10.7089276 28.08554539 10.68143754 31.17381881 10 36 C8.97205931 39.83677227 7.86224242 43.13775758 5 46 C3.125 46.0625 3.125 46.0625 1 45 C-2.58032595 39.98754367 -3.57204005 36.0984293 -4 30 C-4.66 33.3 -5.32 36.6 -6 40 C-7.98 40.495 -7.98 40.495 -10 41 C-12.50298434 38.06171403 -13.46930939 35.82097239 -14 32 C-14.99 32.99 -15.98 33.98 -17 35 C-15.05621714 26.97201876 -12.3346942 19.549093 -9 12 C-8.40058594 10.63488281 -8.40058594 10.63488281 -7.7890625 9.2421875 C-6.86765651 7.15758813 -5.93876691 5.07682512 -5 3 C-4.34 3.33 -3.68 3.66 -3 4 C-2.01 2.68 -1.02 1.36 0 0 Z " fill="#D6D6D6" transform="translate(35,39)"/>
<path d="M0 0 C1.875 0.625 1.875 0.625 4 2 C5.25 5.125 5.25 5.125 6 8 C6.99 6.68 7.98 5.36 9 4 C12.2761423 4.27301186 13.76503806 4.79114494 16.25 7 C18.55572159 10.95266558 18.80349601 14.49023341 19 19 C19.33 19 19.66 19 20 19 C20.33 22.96 20.66 26.92 21 31 C21.99 31.33 22.98 31.66 24 32 C22.02 32.495 22.02 32.495 20 33 C19.43152344 32.24074219 18.86304687 31.48148438 18.27734375 30.69921875 C12.43048785 23.0303626 12.43048785 23.0303626 4 19 C5.10830253 24.44915409 6.10014426 27.84015388 10 32 C4.97731959 31.4419244 2.50802772 27.67558635 -0.6875 24.125 C-4.59797151 17.79376041 -4.23447498 11.20359232 -4 4 C-3.34 4 -2.68 4 -2 4 C-1.34 2.68 -0.68 1.36 0 0 Z " fill="#DADADA" transform="translate(19,78)"/>
<path d="M0 0 C1.875 0.0625 1.875 0.0625 4 1 C5.35827971 2.64639965 6.69254251 4.31295807 8 6 C8.99 6.33 9.98 6.66 11 7 C12.5 9 12.5 9 14 12 C14.28230469 12.56074219 14.56460938 13.12148437 14.85546875 13.69921875 C18.40624214 22.18440022 18.61992124 33.46026935 16.05078125 42.24609375 C13.86679168 46.88276562 11.41673964 50.22376365 7 53 C6.34 52.67 5.68 52.34 5 52 C5.61488281 51.31164062 5.61488281 51.31164062 6.2421875 50.609375 C6.78101562 49.99578125 7.31984375 49.3821875 7.875 48.75 C8.40867187 48.14671875 8.94234375 47.5434375 9.4921875 46.921875 C12.32020901 43.31724655 13.51056512 40.63823241 13 36 C11.9746447 33.7819388 11.9746447 33.7819388 10.5625 31.6875 C7.98018323 27.33987064 7.27390864 24.02165831 7 19 C6.5875 19.515625 6.175 20.03125 5.75 20.5625 C4 22 4 22 1.9375 21.9375 C-0.68619093 20.66797213 -0.98807058 19.73530267 -2 17 C-2.19089068 14.41174692 -2.27969259 11.9582551 -2.25 9.375 C-2.25773437 8.694375 -2.26546875 8.01375 -2.2734375 7.3125 C-2.25344122 2.25344122 -2.25344122 2.25344122 0 0 Z " fill="#E7E7E7" transform="translate(64,57)"/>
<path d="M0 0 C5.46811144 0.66108428 7.42628267 2.97474127 10.86328125 7.06640625 C13.32845848 10.45095487 15.46858139 13.9047604 17.5 17.5625 C18.02557495 18.48119873 18.02557495 18.48119873 18.56176758 19.41845703 C21.05191279 24.1328644 21.3286904 27.6881283 21 33 C20.34 32.01 19.68 31.02 19 30 C18.34 30.66 17.68 31.32 17 32 C15.0703125 32 15.0703125 32 13 31 C11.3671875 28.3125 11.3671875 28.3125 9.875 25 C8.26065068 20.739148 8.26065068 20.739148 5 18 C5 18.66 5 19.32 5 20 C1.125 19.125 1.125 19.125 0 18 C-0.2101919 16.23380413 -0.36843437 14.46128662 -0.5 12.6875 C-0.78253716 8.70598121 -0.78253716 8.70598121 -1.65625 4.83203125 C-2 3 -2 3 0 0 Z " fill="#E4E4E4" transform="translate(49,23)"/>
<path d="M0 0 C3.03514226 0.91054268 4.66537285 2.37483757 6.54296875 4.9140625 C8.25764017 8.20343216 8.34801182 11.2405357 7.5 14.75 C6.08159524 17.61615582 4.40814115 20.18763903 2.5 22.75 C-1.03508103 22.45540991 -2.26203444 22.00118587 -4.75 19.375 C-7.57926305 15.13110542 -8.01252343 11.78981377 -7.5 6.75 C-5.74012994 3.40551666 -3.71844047 1.11553214 0 0 Z " fill="#0C0C0C" transform="translate(53.5,68.25)"/>
<path d="M0 0 C3.2718615 1.53969953 4.9434835 3.09131133 7.125 6 C8.38913673 12.1451091 6.66367051 17.4344531 4.125 23 C3.465 23.66 2.805 24.32 2.125 25 C-0.45490184 24.83355472 -1.60248549 24.25792735 -3.48046875 22.48046875 C-5.52856584 18.83749493 -5.31240778 15.5460119 -5.25 11.4375 C-5.26160156 10.66986328 -5.27320313 9.90222656 -5.28515625 9.11132812 C-5.2560614 3.54936353 -5.2560614 3.54936353 -3.46875 0.97265625 C-1.875 0 -1.875 0 0 0 Z " fill="#0B0B0B" transform="translate(37.875,60)"/>
<path d="M0 0 C2.6719007 0.26719007 3.83443887 0.84585688 5.8125 2.6875 C7.52974976 6.03161796 7.15154579 7.40988664 6 11 C4.15404363 14.11568878 2.1282065 17.07127545 0 20 C-2.375 19.6875 -2.375 19.6875 -5 19 C-7 16 -7 16 -6.9375 13.375 C-5.65916252 8.77298507 -3.44463449 3.44463449 0 0 Z " fill="#0F0F0F" transform="translate(64,81)"/>
<path d="M0 0 C1.9375 0.0625 1.9375 0.0625 4 1 C7.22789301 4.68902058 7.40284438 8.0846182 7.22265625 12.77734375 C6.91900081 15.80857084 6.36551404 18.26897192 5 21 C2.875 21.875 2.875 21.875 1 22 C-2.12832081 17.73260723 -2.37910125 14.54325991 -2.3125 9.3125 C-2.31572266 8.63638672 -2.31894531 7.96027344 -2.32226562 7.26367188 C-2.26758205 2.26758205 -2.26758205 2.26758205 0 0 Z " fill="#101010" transform="translate(64,57)"/>
<path d="M0 0 C2.65354511 0.97296654 3.79877896 1.65792423 5.25 4.125 C6.59326128 9.27416825 6.97209597 13.27182938 4.3125 18 C2 20 2 20 -0.625 20.4375 C-3 20 -3 20 -5 18 C-5.69218234 12.46254128 -4.00954914 7.12527213 -2 2 C-1.34 1.34 -0.68 0.68 0 0 Z " fill="#0C0C0C" transform="translate(53,47)"/>
<path d="M0 0 C0 3.21609341 -0.37442512 3.86819282 -2.0625 6.4375 C-3.78279597 9.20938215 -3.78279597 9.20938215 -3.75 12.4375 C-3.5025 12.953125 -3.255 13.46875 -3 14 C-2.01 14 -1.02 14 0 14 C0.99 11.36 1.98 8.72 3 6 C3.66 6 4.32 6 5 6 C5.33 5.01 5.66 4.02 6 3 C6.33 7.95 6.66 12.9 7 18 C6.01 18 5.02 18 4 18 C1.92246879 18.12352433 1.92246879 18.12352433 0 19 C-1.35102993 21.0720554 -1.35102993 21.0720554 -2.25 23.5625 C-2.58515625 24.38878906 -2.9203125 25.21507813 -3.265625 26.06640625 C-3.50796875 26.70449219 -3.7503125 27.34257813 -4 28 C-4.66 27.67 -5.32 27.34 -6 27 C-5.67 23.37 -5.34 19.74 -5 16 C-8.83736322 16.95934081 -9.59660228 17.23609263 -12 20 C-10.80663839 12.04425593 -5.9470216 5.247372 0 0 Z " fill="#E3E3E3" transform="translate(43,24)"/>
<path d="M0 0 C3 1 3 1 4.09765625 2.9609375 C4.41605469 3.75757813 4.73445313 4.55421875 5.0625 5.375 C6.21523735 8.21749291 7.28043703 10.42065555 9 13 C10.94999129 12.80528889 10.94999129 12.80528889 13 12 C14.1470525 9.99786055 14.1470525 9.99786055 15 8 C15.12117188 8.59167969 15.24234375 9.18335938 15.3671875 9.79296875 C16.26744643 14.03803585 17.20456621 18.02439661 19 22 C18.34 22.66 17.68 23.32 17 24 C16.5875 23.030625 16.175 22.06125 15.75 21.0625 C14.32312519 17.97098541 14.32312519 17.97098541 12.0625 16.875 C9.77166344 16.80112622 9.77166344 16.80112622 7.8125 18.9375 C6.9153125 19.9584375 6.9153125 19.9584375 6 21 C5.67 21 5.34 21 5 21 C4.87882812 20.24074219 4.75765625 19.48148438 4.6328125 18.69921875 C4.38144531 17.20841797 4.38144531 17.20841797 4.125 15.6875 C3.96257813 14.70136719 3.80015625 13.71523438 3.6328125 12.69921875 C3.11914546 9.79940173 3.11914546 9.79940173 1 7 C-2.2981424 7.8509288 -2.2981424 7.8509288 -5 11 C-5 7.7 -5 4.4 -5 1 C-2.525 1.495 -2.525 1.495 0 2 C0 1.34 0 0.68 0 0 Z " fill="#F3F3F3" transform="translate(54,41)"/>
<path d="M0 0 C3.35815617 0.08837253 4.76296007 0.79499249 7.3125 3 C9.55773188 6.99152335 9.72443175 10.50178424 9 15 C8.01 16.485 8.01 16.485 7 18 C2.94886529 16.49957974 0.05845112 13.75605822 -2 10 C-2.53642078 7.08490527 -2.35107978 5.00925523 -2 2 C-1.34 1.34 -0.68 0.68 0 0 Z " fill="#101010" transform="translate(28,82)"/>
<path d="M0 0 C3.69230769 0.69230769 3.69230769 0.69230769 5 2 C5.61143156 7.86974295 4.41380318 13.09002382 1 18 C-1.02734375 18.8203125 -1.02734375 18.8203125 -3 19 C-4.8125 18 -4.8125 18 -6 16 C-5.893601 10.57365079 -3.98486532 3.98486532 0 0 Z " fill="#0E0E0E" transform="translate(44,41)"/>
<path d="M0 0 C0.33 0 0.66 0 1 0 C1.02578125 0.845625 1.0515625 1.69125 1.078125 2.5625 C1.43802892 9.76057833 2.24574973 14.82365278 6 21 C5.01 21 4.02 21 3 21 C2.34 20.34 1.68 19.68 1 19 C-1.60280568 19.32041397 -1.60280568 19.32041397 -4 20 C-4.66 22.64 -5.32 25.28 -6 28 C-6.33 28 -6.66 28 -7 28 C-7.66 24.04 -8.32 20.08 -9 16 C-9.99 15.67 -10.98 15.34 -12 15 C-12.66 16.32 -13.32 17.64 -14 19 C-15.19872272 15.40383184 -14.72500287 14.71078361 -13.1875 11.375 C-12.83042969 10.57835938 -12.47335938 9.78171875 -12.10546875 8.9609375 C-11 7 -11 7 -9 6 C-8.34 8.64 -7.68 11.28 -7 14 C-5.68 14.33 -4.36 14.66 -3 15 C-2.86722656 14.33613281 -2.73445313 13.67226562 -2.59765625 12.98828125 C-1.73177083 8.65885417 -0.86588542 4.32942708 0 0 Z " fill="#F0F0F0" transform="translate(31,64)"/>
<path d="M0 0 C4.875 0.875 4.875 0.875 6 2 C6.12682623 4.47163686 6.18520251 6.90290611 6.1875 9.375 C6.19974609 10.06078125 6.21199219 10.7465625 6.22460938 11.453125 C6.23552331 15.19296797 6.1266842 16.8099737 4 20 C0.125 19.125 0.125 19.125 -1 18 C-1.09980173 15.73097824 -1.12967809 13.45871075 -1.125 11.1875 C-1.12886719 9.32158203 -1.12886719 9.32158203 -1.1328125 7.41796875 C-1.02767173 4.71213998 -0.81143252 2.55665645 0 0 Z " fill="#0D0D0D" transform="translate(24,60)"/>
<path d="M0 0 C2.0625 0.4375 2.0625 0.4375 4 1 C3.43270056 7.35375374 2.71062571 14.28937429 -2 19 C-4.625 18.625 -4.625 18.625 -7 18 C-6.59657725 11.81418444 -4.51160866 4.51160866 0 0 Z " fill="#101010" transform="translate(35,39)"/>
<path d="M0 0 C2.125 0.375 2.125 0.375 4 1 C4.84286354 6.39432664 1.93695764 9.78418693 -1 14 C-1.53625 14.804375 -2.0725 15.60875 -2.625 16.4375 C-4 18 -4 18 -7 19 C-7.66 18.67 -8.32 18.34 -9 18 C-7.1430788 10.88180205 -5.29298499 5.29298499 0 0 Z " fill="#131313" transform="translate(74,92)"/>
<path d="M0 0 C1.85546875 0.109375 1.85546875 0.109375 4 1 C5.73828125 3.328125 5.73828125 3.328125 7.3125 6.25 C8.11107422 7.68085937 8.11107422 7.68085937 8.92578125 9.140625 C10.11794004 12.31393494 9.99503411 13.81123572 9 17 C7.68 17.33 6.36 17.66 5 18 C1.41630447 13.73369579 -0.8357967 9.21674457 -1.25 3.625 C-1 1 -1 1 0 0 Z " fill="#131313" transform="translate(58,37)"/>
<path d="M0 0 C1.98 0.495 1.98 0.495 4 1 C5.86783046 6.48675196 6.2358396 11.22192976 6 17 C3.625 16.75 3.625 16.75 1 16 C-1.02677971 12.96326565 -1.24657136 10.47298289 -1.1875 6.875 C-1.17783203 5.57175781 -1.17783203 5.57175781 -1.16796875 4.2421875 C-1 2 -1 2 0 0 Z " fill="#171717" transform="translate(73,72)"/>
<path d="M0 0 C1.32 0.66 2.64 1.32 4 2 C4.02692484 4.29160319 4.04636124 6.58329546 4.0625 8.875 C4.07410156 10.15117188 4.08570313 11.42734375 4.09765625 12.7421875 C4 16 4 16 3 18 C1.0625 17.625 1.0625 17.625 -1 17 C-3.22541672 12.54916655 -2.47279612 6.47748787 -1 1.875 C-0.67 1.25625 -0.34 0.6375 0 0 Z " fill="#161616" transform="translate(19,78)"/>
<path d="M0 0 C1.875 0.3125 1.875 0.3125 4 1 C6.46934085 4.70401128 6.44928433 7.70587865 6 12 C5 14.5 5 14.5 4 16 C0.125 15.125 0.125 15.125 -1 14 C-1.33243079 9.26774995 -1.18893275 4.60711442 0 0 Z " fill="#0B0B0B" transform="translate(50,27)"/>
<path d="M0 0 C3 1 3 1 4.75 3.9375 C5.36875 5.4534375 5.36875 5.4534375 6 7 C5 9 5 9 3 10 C2.34 9.01 1.68 8.02 1 7 C-2.2981424 7.8509288 -2.2981424 7.8509288 -5 11 C-5 7.7 -5 4.4 -5 1 C-2.525 1.495 -2.525 1.495 0 2 C0 1.34 0 0.68 0 0 Z " fill="#E9E9E9" transform="translate(54,41)"/>
<path d="M0 0 C0.99 0 1.98 0 3 0 C3.33 3.96 3.66 7.92 4 12 C4.99 12.33 5.98 12.66 7 13 C5.68 13.33 4.36 13.66 3 14 C1.82750647 12.54634731 0.66216184 11.08692581 -0.5 9.625 C-1.1496875 8.81289062 -1.799375 8.00078125 -2.46875 7.1640625 C-4 5 -4 5 -4 3 C-3.01 2.67 -2.02 2.34 -1 2 C-0.67 1.34 -0.34 0.68 0 0 Z " fill="#DBDBDB" transform="translate(36,97)"/>
<path d="M0 0 C0.99 0.33 1.98 0.66 3 1 C3.46207789 2.94732827 3.91866234 4.8964017 4.328125 6.85546875 C5.41694919 10.33084364 7.51486218 12.38406545 10 15 C5.61112889 15 2.87170197 13.03105677 -1 11 C-0.67 7.37 -0.34 3.74 0 0 Z " fill="#C8C8C8" transform="translate(23,85)"/>
<path d="M0 0 C0.33 0 0.66 0 1 0 C0.67 5.94 0.34 11.88 0 18 C-0.33 18 -0.66 18 -1 18 C-1.33 16.35 -1.66 14.7 -2 13 C-2.99 13.99 -3.98 14.98 -5 16 C-4.54548816 14.26982492 -4.08621143 12.54090123 -3.625 10.8125 C-3.36976562 9.84957031 -3.11453125 8.88664062 -2.8515625 7.89453125 C-2.05233704 5.17789793 -1.0968638 2.60862825 0 0 Z " fill="#C2C2C2" transform="translate(23,58)"/>
<path d="M0 0 C0.33 0 0.66 0 1 0 C1.12117188 0.59167969 1.24234375 1.18335938 1.3671875 1.79296875 C2.26744643 6.03803585 3.20456621 10.02439661 5 14 C4.34 14.66 3.68 15.32 3 16 C2.566875 15.071875 2.13375 14.14375 1.6875 13.1875 C0.27961373 10.52815927 -0.76123556 8.91894095 -3 7 C-2.01 4.69 -1.02 2.38 0 0 Z " fill="#EDEDED" transform="translate(68,49)"/>
<path d="M0 0 C0.66 0.99 1.32 1.98 2 3 C-0.31537955 6.72114571 -2.28579473 9.61229661 -6 12 C-6.66 11.67 -7.32 11.34 -8 11 C-7.38511719 10.31164062 -7.38511719 10.31164062 -6.7578125 9.609375 C-6.21898438 8.99578125 -5.68015625 8.3821875 -5.125 7.75 C-4.59132813 7.14671875 -4.05765625 6.5434375 -3.5078125 5.921875 C-2.0202513 4.02581254 -0.99677564 2.18709995 0 0 Z " fill="#C0C0C0" transform="translate(77,98)"/>
<path d="M0 0 C1.67542976 0.28604898 3.34385343 0.61781233 5 1 C4.67 1.99 4.34 2.98 4 4 C3.01 4 2.02 4 1 4 C1 5.65 1 7.3 1 9 C0.01 8.34 -0.98 7.68 -2 7 C-1.125 1.125 -1.125 1.125 0 0 Z " fill="#C6C6C6" transform="translate(49,23)"/>
<path d="M0 0 C0 4.07605096 -1.55272534 6.7838181 -4 10 C-6.25 10.9375 -6.25 10.9375 -8 11 C-6.52670958 5.99081256 -3.72484762 3.48192278 0 0 Z " fill="#CDCDCD" transform="translate(43,24)"/>
<path d="M0 0 C3 3 3 3 3.07421875 5.48046875 C2.94660156 6.37378906 2.81898437 7.26710938 2.6875 8.1875 C2.56761719 9.08855469 2.44773437 9.98960938 2.32421875 10.91796875 C2.21722656 11.60503906 2.11023438 12.29210937 2 13 C1.67 13 1.34 13 1 13 C0.67 8.71 0.34 4.42 0 0 Z " fill="#DADADA" transform="translate(78,75)"/>
<path d="M0 0 C3.91531663 5.10693473 4.10265877 7.63515636 4 14 C3.67 14 3.34 14 3 14 C3 11.69 3 9.38 3 7 C2.34 7 1.68 7 1 7 C0.67 4.69 0.34 2.38 0 0 Z " fill="#C4C4C4" transform="translate(66,42)"/>
</svg>
