<?xml version="1.0" encoding="UTF-8"?>
<svg version="1.1" xmlns="http://www.w3.org/2000/svg" width="336" height="267">
<path d="M0 0 C4.21316909 0.94581347 5.68765523 3.28806053 8.0625 6.6875 C10.42627735 10.48357309 12.676297 14.34074181 14.90362549 18.21768188 C16.78373297 21.48842836 18.68402039 24.7474339 20.58203125 28.0078125 C20.96329163 28.66370865 21.344552 29.3196048 21.73736572 29.99537659 C34.40727016 51.76310535 47.80329451 73.15366683 61.5234375 94.2734375 C63.0625 96.6875 63.0625 96.6875 64.0625 98.6875 C69.43014378 98.09032703 73.76736938 96.26898221 78.6328125 94.07421875 C79.45938858 93.70809982 80.28596466 93.3419809 81.1375885 92.96476746 C82.9071095 92.18019767 84.67528817 91.39259461 86.44223022 90.60223389 C89.2035735 89.36781457 91.9688734 88.1427213 94.7355957 86.92041016 C98.43667169 85.28491391 102.13672663 83.6471596 105.83544922 82.00634766 C107.15884308 81.41929047 107.15884308 81.41929047 108.50897217 80.82037354 C110.14364942 80.09514839 111.77829589 79.36985384 113.41290283 78.64447021 C118.01880863 76.60209376 122.63224806 74.57794652 127.25 72.5625 C128.37486816 72.06065186 129.49973633 71.55880371 130.65869141 71.04174805 C132.21015869 70.36752808 132.21015869 70.36752808 133.79296875 69.6796875 C134.67364014 69.29151855 135.55431152 68.90334961 136.46166992 68.50341797 C139.51521797 67.54547583 141.88196834 67.33253367 145.0625 67.6875 C147.0625 70.6875 147.0625 70.6875 147.25 73.625 C146.0625 76.6875 146.0625 76.6875 144.48095703 77.6418457 C143.44237549 78.0608313 143.44237549 78.0608313 142.3828125 78.48828125 C141.56546631 78.82867432 140.74812012 79.16906738 139.90600586 79.51977539 C138.96764893 79.90512451 138.02929199 80.29047363 137.0625 80.6875 C134.85614874 81.64662742 132.65188248 82.61055908 130.44921875 83.578125 C129.205396 84.12120502 127.96141285 84.66391777 126.71728516 85.20629883 C112.85228388 91.25545529 99.01034754 97.35511802 85.1875 103.5 C84.39088959 103.85396851 83.59427917 104.20793701 82.77352905 104.57263184 C80.51800036 105.57511499 78.26281956 106.57837534 76.0078125 107.58203125 C75.33221786 107.88242813 74.65662323 108.18282501 73.96055603 108.49232483 C70.48759383 110.03882009 70.48759383 110.03882009 67.0625 111.6875 C68.00757416 111.67417633 68.00757416 111.67417633 68.97174072 111.6605835 C75.52517633 111.57213729 82.0784426 111.51177694 88.63232422 111.46777344 C91.07868333 111.44764948 93.52499429 111.4203474 95.97119141 111.38574219 C99.48612341 111.33726037 103.00041984 111.31453872 106.515625 111.296875 C107.6105426 111.27622986 108.70546021 111.25558472 109.83355713 111.23431396 C110.85431335 111.23401184 111.87506958 111.23370972 112.92675781 111.23339844 C114.27244843 111.22007477 114.27244843 111.22007477 115.64532471 111.20648193 C118.85660181 111.84552632 120.07538946 113.13750695 122.0625 115.6875 C121.7625 119.9875 121.7625 119.9875 120.0625 121.6875 C117.43150096 121.91573124 114.82460224 122.07214648 112.1875 122.1875 C111.3428418 122.22738037 110.49818359 122.26726074 109.62792969 122.30834961 C94.78105585 122.96698384 79.91838852 123.29794002 65.0625 123.6875 C74.12250091 127.0690978 83.096939 130.02621958 92.5 132.3125 C106.41418469 135.74683243 119.76924215 140.73270821 133.22763062 145.60494995 C139.41617578 147.83651815 145.65212075 149.91701335 151.95239258 151.8125 C156.03289735 153.10147098 158.88309825 154.82906642 162.0625 157.6875 C161.3125 162.4375 161.3125 162.4375 159.0625 164.6875 C157.18765259 164.5382843 157.18765259 164.5382843 154.95166016 163.9777832 C154.14448547 163.77601471 153.33731079 163.57424622 152.50567627 163.36636353 C148.90858705 162.36687254 145.3693524 161.2470537 141.8359375 160.04296875 C140.70981552 159.66547234 140.70981552 159.66547234 139.5609436 159.28034973 C137.18499952 158.48283919 134.81122217 157.67909657 132.4375 156.875 C130.87123656 156.34788275 129.30483112 155.82118727 127.73828125 155.29492188 C124.65928733 154.25990604 121.58082901 153.22332498 118.50292969 152.18505859 C117.02279024 151.68586119 115.54264708 151.18667478 114.0625 150.6875 C112.99715027 150.32812347 112.99715027 150.32812347 111.91027832 149.96148682 C109.89126569 149.28124031 107.87152308 148.60320686 105.8515625 147.92578125 C104.7063916 147.54075439 103.5612207 147.15572754 102.38134766 146.7590332 C98.95905873 145.65410264 95.52547949 144.65591378 92.0625 143.6875 C92.58714844 144.57824219 93.11179688 145.46898437 93.65234375 146.38671875 C94.43490681 147.71613937 95.21745762 149.04556721 96 150.375 C96.433125 151.11032959 96.86625 151.84565918 97.3125 152.60327148 C100.27265343 157.63281011 103.22036707 162.66947347 106.16015625 167.7109375 C112.81533976 179.11715703 119.46448189 190.51241518 126.53515625 201.66796875 C130.44514937 207.84931387 134.21538767 214.11775343 138.00341797 220.37426758 C140.53417989 224.5510393 143.06595073 228.72280786 145.69921875 232.8359375 C146.26261963 233.72212769 146.26261963 233.72212769 146.83740234 234.6262207 C147.78630272 236.11119397 148.74611645 237.58917902 149.70703125 239.06640625 C151.25666543 242.0629611 151.93112742 244.31258379 152.0625 247.6875 C151.15605545 249.83694839 151.15605545 249.83694839 149.0625 251.6875 C145.94576292 252.31257825 142.84835784 252.23332287 139.67889404 252.20648193 C138.2179607 252.21773381 138.2179607 252.21773381 136.72751355 252.229213 C133.44670987 252.24959329 130.16659068 252.24136588 126.88574219 252.23339844 C124.53793654 252.24213046 122.19013685 252.25261494 119.84234619 252.26472473 C113.43869904 252.2927246 107.03524456 252.29598543 100.63154507 252.29500484 C94.57648939 252.29591809 88.52150089 252.31897595 82.46648827 252.33997145 C70.41614467 252.3811454 58.36583491 252.40437616 46.31542969 252.41650391 C34.72555149 252.42820528 23.13573977 252.44821513 11.54589844 252.47998047 C10.83845965 252.48191657 10.13102085 252.48385267 9.40214452 252.48584744 C5.84635754 252.49562758 2.290571 252.50556242 -1.2652154 252.51555204 C-26.24957213 252.58541887 -51.23400669 252.64955402 -76.2184639 252.6639061 C-78.55339816 252.66534389 -80.88833239 252.66681979 -83.2232666 252.66833496 C-84.928868 252.66940431 -84.928868 252.66940431 -86.668926 252.67049527 C-93.59067991 252.67719908 -100.51209304 252.70265136 -107.43373132 252.74295211 C-111.85778682 252.76790278 -116.28185634 252.78562557 -120.70594931 252.80245447 C-122.7677301 252.81230341 -124.8294974 252.82570481 -126.89123011 252.84288931 C-129.69923466 252.86609192 -132.50704253 252.87720909 -135.31512451 252.88555908 C-136.54826047 252.9006693 -136.54826047 252.9006693 -137.80630827 252.91608477 C-145.09774563 252.91514708 -145.09774563 252.91514708 -147.9375 250.6875 C-149.03743024 246.83918087 -149.29229674 244.57245018 -147.79199219 240.83032227 C-147.19547852 239.89760498 -146.59896484 238.9648877 -145.984375 238.00390625 C-145.31212891 236.92818359 -144.63988281 235.85246094 -143.94726562 234.74414062 C-143.58028564 234.17671143 -143.21330566 233.60928223 -142.83520508 233.0246582 C-141.66141715 231.20966896 -140.51069837 229.3818094 -139.36523438 227.54882812 C-138.14857692 225.60197106 -136.93077982 223.65596823 -135.70629883 221.71401978 C-131.55108414 215.11770711 -127.57978066 208.4176074 -123.62371826 201.70059204 C-117.1839434 190.7718617 -110.66312805 179.894742 -104.0625 169.0625 C-97.54025677 158.35615522 -91.12335242 147.59228854 -84.76464844 136.78808594 C-81.08272355 130.54003062 -77.38679758 124.30028173 -73.6875 118.0625 C-73.2832782 117.38068665 -72.8790564 116.69887329 -72.46258545 115.99639893 C-66.76786445 106.39564162 -61.00435592 96.83965469 -55.1875 87.3125 C-49.05495493 77.26826967 -43.10438611 67.13195961 -37.25341797 56.92138672 C-33.04344666 49.58008756 -28.75002488 42.29653751 -24.37182617 35.05444336 C-21.69978671 30.63270885 -19.05552664 26.19685955 -16.4453125 21.73828125 C-15.86023926 20.74022461 -15.27516602 19.74216797 -14.67236328 18.71386719 C-13.54509666 16.78802751 -12.42089664 14.86038837 -11.30029297 12.93066406 C-4.31454462 1.00978704 -4.31454462 1.00978704 0 0 Z M4.0625 23.6875 C4.93949145 40.61593053 6.0960233 57.50895779 7.7454834 74.38082886 C7.91501572 76.12544652 8.07998236 77.87051395 8.24035645 79.61599731 C8.468179 82.07499765 8.71383466 84.53155308 8.96484375 86.98828125 C9.03052048 87.72439636 9.0961972 88.46051147 9.16386414 89.21893311 C9.47788136 92.1187656 9.71525029 94.22930695 11.50292969 96.58813477 C13.40763326 97.93078978 15.36843714 99.12727634 17.375 100.3125 C23.15202809 104.07275156 26.88459488 109.15378463 29.0625 115.6875 C37.70661081 113.06339493 45.83175385 109.37366238 54.0625 105.6875 C53.43494829 102.54974145 52.369502 100.30529659 50.6484375 97.6171875 C50.1423999 96.81651855 49.6363623 96.01584961 49.11499023 95.19091797 C48.56141846 94.32354004 48.00784668 93.45616211 47.4375 92.5625 C42.25869573 84.33695687 37.31552012 76.00549664 32.5 67.5625 C26.69898579 57.41556801 20.65878961 47.46957138 14.32128906 37.64990234 C13.14351147 35.81379368 11.98520685 33.96733085 10.8359375 32.11328125 C10.20945313 31.10652344 9.58296875 30.09976563 8.9375 29.0625 C8.41929687 28.22460938 7.90109375 27.38671875 7.3671875 26.5234375 C6.18237339 24.55159313 6.18237339 24.55159313 4.0625 23.6875 Z M-5.9375 25.6875 C-7.02385895 27.30418211 -8.05170321 28.96002953 -9.0625 30.625 C-9.40595459 31.18928711 -9.74940918 31.75357422 -10.10327148 32.33496094 C-11.386724 34.44926718 -12.66263277 36.5680057 -13.9375 38.6875 C-14.46714355 39.56744629 -14.99678711 40.44739258 -15.54248047 41.35400391 C-18.68369051 46.57638716 -21.81841444 51.80262255 -24.94921875 57.03125 C-27.50867415 61.30550941 -30.07337438 65.57651975 -32.64453125 69.84375 C-39.35162225 80.98172138 -45.99529235 92.15414486 -52.5625 103.375 C-52.92193695 103.98913757 -53.2813739 104.60327515 -53.65170288 105.23602295 C-55.07585638 107.66969232 -56.49977426 110.10349941 -57.92350769 112.53741455 C-61.14892358 118.05074565 -64.38083639 123.56017841 -67.625 129.0625 C-68.13393799 129.92609131 -68.64287598 130.78968262 -69.16723633 131.67944336 C-72.02255001 136.50633691 -74.91910929 141.30548007 -77.8515625 146.0859375 C-78.50165283 147.14635254 -79.15174316 148.20676758 -79.8215332 149.29931641 C-81.08399979 151.35372145 -82.35060924 153.40558777 -83.62182617 155.45458984 C-84.18619385 156.37191895 -84.75056152 157.28924805 -85.33203125 158.234375 C-86.08770386 159.45398926 -86.08770386 159.45398926 -86.85864258 160.69824219 C-88.09641395 162.60335106 -88.09641395 162.60335106 -87.9375 164.6875 C-87.29949463 164.72713867 -86.66148926 164.76677734 -86.00415039 164.80761719 C-45.52729997 167.43895774 -45.52729997 167.43895774 -36 177.5 C-33.59546669 181.21609693 -32.86114735 183.25904652 -32.9375 187.6875 C-35.2290628 195.4533517 -40.61737098 198.88299015 -46.94140625 203.390625 C-49.54358723 205.38551733 -51.29013132 206.88581312 -52.9375 209.6875 C-53.33723055 212.71393583 -53.33723055 212.71393583 -51.9375 215.6875 C-44.98585531 221.06436661 -37.04002281 222.91764648 -28.6875 225.125 C-5.73045533 231.19539881 -5.73045533 231.19539881 0.67272949 237.19665527 C7.02357521 242.9313266 13.4336204 242.46706973 21.625 242.2734375 C23.02602307 242.26222786 24.42706987 242.25369603 25.828125 242.24771118 C29.49150081 242.22495046 33.15341822 242.16614381 36.81622314 242.0994873 C40.56347938 242.0377848 44.31097446 242.01063706 48.05859375 241.98046875 C55.39388952 241.91638264 62.72798937 241.81416507 70.0625 241.6875 C70.0625 241.0275 70.0625 240.3675 70.0625 239.6875 C67.71955011 237.99570761 65.39351781 236.4501837 62.9375 234.9375 C62.21046875 234.48793945 61.4834375 234.03837891 60.734375 233.57519531 C52.86005382 228.81150537 44.68979508 225.32730713 36.01953125 222.23828125 C15.02531512 214.7285169 15.02531512 214.7285169 10.0625 206.6875 C9.50063202 202.35308989 9.63521975 198.72978253 12.3828125 195.1484375 C18.8815622 189.4960366 28.55930494 187.11822927 36.5625 184.25 C46.78662852 180.5806073 56.47981878 176.7489512 64.0625 168.6875 C65.17625 167.5428125 65.17625 167.5428125 66.3125 166.375 C68.60975421 162.84707389 69.48777447 159.83933213 69.0625 155.6875 C66.97634069 149.6587753 63.94477326 144.83743227 59.0625 140.6875 C58.340625 140.006875 57.61875 139.32625 56.875 138.625 C49.30984789 133.41345077 41.19274953 131.6180156 32.0625 131.6875 C28.94695795 132.34641103 28.94695795 132.34641103 27.95703125 134.7265625 C27.42142578 136.00660156 27.42142578 136.00660156 26.875 137.3125 C24.08266029 143.21872156 20.0193688 147.93860771 13.94140625 150.625 C11.53543549 151.98554895 11.13406114 153.16794592 10.0625 155.6875 C9.56211805 157.68276996 9.56211805 157.68276996 9.28466797 159.78173828 C9.10470779 160.97284714 9.10470779 160.97284714 8.92111206 162.1880188 C8.80019196 163.03605072 8.67927185 163.88408264 8.5546875 164.7578125 C8.42434113 165.63525116 8.29399475 166.51268982 8.15969849 167.41671753 C7.74588133 170.21441029 7.34176454 173.01341271 6.9375 175.8125 C6.65814856 177.70451525 6.37820737 179.59644352 6.09765625 181.48828125 C4.6884162 189.55907649 4.6884162 189.55907649 4.0625 197.6875 C1.68432617 197.16064453 1.68432617 197.16064453 -0.9375 195.6875 C-1.8768726 193.04667006 -2.43420844 190.84700862 -2.88671875 188.1171875 C-3.03027298 187.36212921 -3.17382721 186.60707092 -3.32173157 185.82913208 C-3.77711835 183.41026286 -4.20171703 180.98717265 -4.625 178.5625 C-5.06576373 176.16088106 -5.5127104 173.76047361 -5.96040344 171.36013794 C-6.23643559 169.86739669 -6.50727517 168.37368201 -6.77189636 166.87887573 C-7.88544128 157.97321993 -7.88544128 157.97321993 -12.109375 150.62109375 C-12.96015625 150.12738281 -13.8109375 149.63367188 -14.6875 149.125 C-19.79204942 145.88670926 -25.04515855 142.29566327 -26.56640625 136.14453125 C-28.16026704 133.28829638 -28.68917161 133.14838868 -31.68359375 132.17578125 C-33.2416063 131.76143756 -34.80601125 131.37061853 -36.375 131 C-37.18308105 130.79286377 -37.99116211 130.58572754 -38.82373047 130.37231445 C-44.80889745 128.86855469 -50.83045755 127.58875957 -56.9375 126.6875 C-56.4425 125.2025 -56.4425 125.2025 -55.9375 123.6875 C-53.60839844 122.78369141 -53.60839844 122.78369141 -50.546875 122.0390625 C-49.44472656 121.75546875 -48.34257813 121.471875 -47.20703125 121.1796875 C-44.87721957 120.60563845 -42.5464974 120.03527102 -40.21484375 119.46875 C-32.94692583 117.59042896 -28.69419769 115.99769584 -24.5234375 109.4765625 C-24.12382812 108.76242188 -23.72421875 108.04828125 -23.3125 107.3125 C-20.78717271 103.26007689 -18.43309798 101.73671388 -14.1875 99.625 C-10.71901876 97.53640169 -9.22489544 96.49573484 -7.85546875 92.64453125 C-7.4058564 89.17557089 -7.16487987 85.79708597 -7.05126953 82.30517578 C-6.9244851 79.38804557 -6.6718039 76.4972243 -6.40234375 73.58984375 C-4.9651874 57.60635056 -4.68917793 41.72719528 -4.9375 25.6875 C-5.2675 25.6875 -5.5975 25.6875 -5.9375 25.6875 Z M-12.875 114.8125 C-14.88289715 120.24563346 -15.66090356 125.43218302 -13.875 131 C-11.0324622 134.94287502 -8.49962602 137.92679592 -3.79296875 139.32421875 C1.57072774 140.17400371 5.30942808 139.5210621 10.0625 136.6875 C14.07846931 132.86920794 15.91043298 129.51230422 16.375 123.9375 C16.28303118 119.38922359 15.13136405 116.08302185 12.0625 112.6875 C3.8766426 106.66796495 -5.93202957 107.19762921 -12.875 114.8125 Z M78.0625 149.6875 C78.16949219 150.3165625 78.27648437 150.945625 78.38671875 151.59375 C79.59098391 160.19194428 78.01010127 165.23822706 73 172.25 C62.59837995 184.91473403 46.14438098 190.21065796 31.25146484 195.61669922 C30.23906738 195.98553223 29.22666992 196.35436523 28.18359375 196.734375 C27.2702124 197.06276367 26.35683105 197.39115234 25.41577148 197.72949219 C22.85827284 198.67918158 22.85827284 198.67918158 20.0625 200.6875 C20.38298213 203.67866659 20.98719737 204.61901865 23.25366211 206.68017578 C26.08385806 208.70276345 28.55825813 209.86656882 31.81640625 211.0546875 C33.4705957 211.67150391 33.4705957 211.67150391 35.15820312 212.30078125 C36.87426758 212.92533203 36.87426758 212.92533203 38.625 213.5625 C50.77451914 218.00727503 62.07775876 223.04653748 72.8125 230.3125 C83.78663158 237.98817485 83.78663158 237.98817485 96.53393555 240.80102539 C97.43464279 240.80094986 98.33535004 240.80087433 99.26335144 240.80079651 C100.71660576 240.79305458 100.71660576 240.79305458 102.19921875 240.78515625 C103.19379593 240.7837413 104.18837311 240.78232635 105.21308899 240.78086853 C108.39208982 240.77526761 111.57102043 240.76271496 114.75 240.75 C116.90429586 240.74498512 119.05859282 240.74042219 121.21289062 240.73632812 C126.49611774 240.72529788 131.77930385 240.70855886 137.0625 240.6875 C125.3348043 219.11424189 112.6847525 198.12906589 99.68701172 177.29980469 C98.04314916 174.65638277 96.41347652 172.00458057 94.78515625 169.3515625 C93.73214839 167.65080785 92.67877747 165.95027791 91.625 164.25 C91.15320313 163.47519287 90.68140625 162.70038574 90.1953125 161.90209961 C87.26300922 157.20096537 84.21753051 153.37501653 80.0625 149.6875 C79.4025 149.6875 78.7425 149.6875 78.0625 149.6875 Z M-94.9375 174.6875 C-97.03653783 177.37377334 -97.03653783 177.37377334 -98.828125 180.69921875 C-99.34693993 181.59959366 -99.34693993 181.59959366 -99.87623596 182.51815796 C-100.99329637 184.46317016 -102.09018851 186.41879068 -103.1875 188.375 C-103.95509337 189.71824257 -104.72422243 191.06060872 -105.49487305 192.40209961 C-106.99453235 195.01506714 -108.48805229 197.63136543 -109.97607422 200.25097656 C-112.18240223 204.11658187 -114.44134209 207.94492813 -116.75 211.75 C-117.40613281 212.83925781 -118.06226563 213.92851562 -118.73828125 215.05078125 C-119.97435296 217.09638875 -121.21220391 219.14090771 -122.45068359 221.18505859 C-124.11541413 223.93439374 -125.77649234 226.68591449 -127.4375 229.4375 C-127.96706299 230.30898682 -128.49662598 231.18047363 -129.04223633 232.07836914 C-129.53361084 232.89297607 -130.02498535 233.70758301 -130.53125 234.546875 C-131.19157227 235.63693848 -131.19157227 235.63693848 -131.86523438 236.74902344 C-133.07585235 238.79842602 -133.07585235 238.79842602 -133.9375 241.6875 C-94.0075 241.6875 -54.0775 241.6875 -12.9375 241.6875 C-13.73619786 239.56016907 -13.73619786 239.56016907 -15.64550781 238.92895508 C-16.38639648 238.69072021 -17.12728516 238.45248535 -17.890625 238.20703125 C-18.72787109 237.93358887 -19.56511719 237.66014648 -20.42773438 237.37841797 C-21.33845703 237.08854004 -22.24917969 236.79866211 -23.1875 236.5 C-24.11884766 236.19465332 -25.05019531 235.88930664 -26.00976562 235.57470703 C-30.93763206 233.96100429 -35.87796781 232.39147618 -40.828125 230.84765625 C-41.76881836 230.54819092 -42.70951172 230.24872559 -43.67871094 229.94018555 C-45.47987462 229.36716046 -47.28513784 228.8068224 -49.09472656 228.26098633 C-55.098591 226.33888162 -59.08829248 224.03368505 -62.25 218.3125 C-63.70494986 212.75723689 -63.4300292 208.01432464 -60.6796875 202.875 C-57.43262217 198.7979673 -53.14113953 195.9105311 -48.93359375 192.88671875 C-45.6870228 190.539916 -45.6870228 190.539916 -42.9375 187.6875 C-42.70749802 185.16320505 -42.70749802 185.16320505 -43.9375 182.6875 C-54.23702177 174.67332938 -82.90024681 168.12289967 -94.9375 174.6875 Z " fill="#000000" transform="translate(155.9375,8.3125)"/>
<path d="M0 0 C0.74168427 0.00444122 1.48336853 0.00888245 2.24752808 0.01345825 C3.50860886 0.01368484 3.50860886 0.01368484 4.79516602 0.01391602 C6.15773026 0.02939987 6.15773026 0.02939987 7.54782104 0.04519653 C8.47722504 0.04802643 9.40662903 0.05085632 10.36419678 0.05377197 C13.33959704 0.06498834 16.3146989 0.09009543 19.29000854 0.11550903 C21.30432712 0.12553696 23.31865041 0.13466313 25.33297729 0.14285278 C30.27710311 0.16493243 35.22100519 0.1994721 40.16500854 0.24050903 C40.66000854 3.21050903 40.66000854 3.21050903 41.16500854 6.24050903 C38.05204715 9.38464681 35.3128811 9.59587734 30.99507141 9.63169861 C30.1939241 9.62248886 29.39277679 9.61327911 28.56735229 9.60379028 C27.7366774 9.60428879 26.9060025 9.60478729 26.05015564 9.6053009 C24.29764407 9.60296443 22.54512888 9.59326102 20.79269409 9.57669067 C18.10855168 9.55306223 15.42540067 9.55613724 12.74118042 9.56277466 C11.03739845 9.55719879 9.33362067 9.55008949 7.62985229 9.54129028 C6.82668076 9.54220169 6.02350922 9.5431131 5.19599915 9.54405212 C1.33811539 9.49486689 -0.55167048 9.42938968 -3.83499146 7.24050903 C-4.14749146 4.74050903 -4.14749146 4.74050903 -3.83499146 2.24050903 C-1.83499146 0.24050903 -1.83499146 0.24050903 0 0 Z " fill="#000000" transform="translate(287.8349914550781,119.75949096679688)"/>
</svg>
