<svg xmlns="http://www.w3.org/2000/svg" version="1.1" xmlns:xlink="http://www.w3.org/1999/xlink" viewBox="0 0 200 200"><rect width="200" height="200" fill="url('#gradient')"></rect><defs><linearGradient id="gradient" gradientTransform="rotate(45 0.5 0.5)"><stop offset="0%" stop-color="#dee90b"></stop><stop offset="100%" stop-color="#d9e241"></stop></linearGradient></defs><g><g fill="#1b3855" transform="matrix(3.2686646568540523,0,0,3.2686646568540523,7.804301522105348,124.1904613452931)" stroke="#0e5278" stroke-width="0.2"><path d="M9.17-4.81L12.58-4.81Q12.51-3.33 11.78-2.19Q11.04-1.05 9.72-0.43Q8.40 0.20 6.70 0.20L6.70 0.20Q3.90 0.20 2.29-1.63Q0.67-3.46 0.67-6.79L0.67-6.79L0.67-7.49Q0.67-9.58 1.40-11.15Q2.13-12.71 3.50-13.57Q4.86-14.42 6.66-14.42L6.66-14.42Q9.25-14.42 10.82-13.06Q12.39-11.70 12.61-9.31L12.61-9.31L9.19-9.31Q9.15-10.61 8.54-11.17Q7.92-11.74 6.66-11.74L6.66-11.74Q5.38-11.74 4.79-10.78Q4.19-9.82 4.16-7.72L4.16-7.72L4.16-6.72Q4.16-4.44 4.73-3.47Q5.30-2.49 6.70-2.49L6.70-2.49Q7.88-2.49 8.51-3.05Q9.13-3.60 9.17-4.81L9.17-4.81ZM13.64-4.82L13.63-5.38Q13.63-6.96 14.25-8.20Q14.86-9.43 16.02-10.10Q17.17-10.76 18.72-10.76L18.72-10.76Q21.09-10.76 22.46-9.29Q23.83-7.82 23.83-5.29L23.83-5.29L23.83-5.18Q23.83-2.71 22.46-1.25Q21.08 0.20 18.74 0.20L18.74 0.20Q16.48 0.20 15.12-1.16Q13.75-2.51 13.64-4.82L13.64-4.82ZM16.93-5.77L16.92-5.18Q16.92-3.71 17.38-3.03Q17.84-2.34 18.74-2.34L18.74-2.34Q20.50-2.34 20.54-5.05L20.54-5.05L20.54-5.38Q20.54-8.22 18.72-8.22L18.72-8.22Q17.07-8.22 16.93-5.77L16.93-5.77ZM34.52 0L31.23 0Q31.05-0.32 30.92-0.95L30.92-0.95Q30.01 0.20 28.38 0.20L28.38 0.20Q26.88 0.20 25.84-0.71Q24.79-1.61 24.79-2.98L24.79-2.98Q24.79-4.70 26.06-5.58Q27.33-6.46 29.76-6.46L29.76-6.46L30.77-6.46L30.77-7.01Q30.77-8.47 29.51-8.47L29.51-8.47Q28.34-8.47 28.34-7.31L28.34-7.31L25.05-7.31Q25.05-8.85 26.35-9.80Q27.66-10.76 29.68-10.76Q31.70-10.76 32.87-9.78Q34.04-8.79 34.07-7.07L34.07-7.07L34.07-2.39Q34.09-0.94 34.52-0.17L34.52-0.17L34.52 0ZM29.17-2.15L29.17-2.15Q29.79-2.15 30.19-2.41Q30.60-2.68 30.77-3.01L30.77-3.01L30.77-4.70L29.81-4.70Q28.10-4.70 28.10-3.15L28.10-3.15Q28.10-2.71 28.40-2.43Q28.70-2.15 29.17-2.15ZM40.36-2.34L40.36-2.34Q41.05-2.34 41.44-2.72Q41.82-3.10 41.81-3.77L41.81-3.77L44.89-3.77Q44.89-2.03 43.65-0.92Q42.40 0.20 40.44 0.20L40.44 0.20Q38.13 0.20 36.81-1.25Q35.48-2.70 35.48-5.25L35.48-5.25L35.48-5.39Q35.48-6.99 36.07-8.22Q36.66-9.44 37.77-10.10Q38.89-10.76 40.41-10.76L40.41-10.76Q42.47-10.76 43.68-9.62Q44.89-8.48 44.89-6.52L44.89-6.52L41.81-6.52Q41.81-7.34 41.41-7.78Q41.01-8.22 40.33-8.22L40.33-8.22Q39.05-8.22 38.84-6.59L38.84-6.59Q38.77-6.07 38.77-5.17L38.77-5.17Q38.77-3.57 39.15-2.96Q39.53-2.34 40.36-2.34ZM49.50-15L49.50-9.43Q50.56-10.76 52.20-10.76L52.20-10.76Q53.95-10.76 54.83-9.73Q55.72-8.69 55.74-6.67L55.74-6.67L55.74 0L52.44 0L52.44-6.59Q52.44-7.43 52.10-7.83Q51.76-8.22 50.94-8.22L50.94-8.22Q49.92-8.22 49.50-7.58L49.50-7.58L49.50 0L46.21 0L46.21-15L49.50-15Z"></path></g></g></svg>